# xmcd
#
# Track frame offsets:
# 150
# 11154
# 22380
# 44538
# 59764
# 82132
# 101808
# 116263
# 151228
#
# Disc length: 2201 seconds
#
# Revision: 0
# Processed by: cddbd v1.4PL0 Copyright (c) Steve Scherf et al.
# Submitted via: Axialis_AX_CDPlayer 2.6
#
DISCID=7c089709
DTITLE=Savoy Brown - Raw Sienna
DYEAR=1900
DGENRE=
TTITLE0=A Hard Way To Go
TTITLE1=That Same Feelin'
TTITLE2=Master Hare
TTITLE3=Needle and Spoon
TTITLE4=A Little More Wine
TTITLE5=I'm Crying
TTITLE6=Stay While The Night Is Young
TTITLE7=Is That So
TTITLE8=When I Was A Young Boy
EXTD=
EXTT0=
EXTT1=
EXTT2=
EXTT3=
EXTT4=
EXTT5=
EXTT6=
EXTT7=
EXTT8=
PLAYORDER=
